<?xml version="1.0" encoding="UTF-8"?>
<svg width="943px" height="190px" viewBox="0 0 943 190" version="1.1" xmlns="http://www.w3.org/2000/svg" xmlns:xlink="http://www.w3.org/1999/xlink">
    <!-- Generator: Sketch 60.1 (88133) - https://sketch.com -->
    <title>logo-light</title>
    <desc>Created with Sketch.</desc>
    <defs>
        <path d="M47.7218473,13.5988362 L70.0765083,26.5053058 C72.5405642,27.9279291 74.0636032,30.5522343 74.0764271,33.3974521 L74.1912231,58.8671414 C74.2042212,61.7510163 72.6640455,64.4186789 70.1600375,65.8493596 L48.0452415,78.4847881 C45.5747987,79.8962912 42.5405642,79.8894533 40.0765083,78.46683 L17.7218473,65.5603604 C15.2577914,64.1377371 13.7347524,61.5134319 13.7219286,58.6682141 L13.6071326,33.1985248 C13.5941345,30.3146498 15.1343102,27.6469873 17.6383181,26.2163065 L39.7531141,13.5808781 C42.2235569,12.169375 45.2577914,12.1762128 47.7218473,13.5988362 Z" id="path-1"></path>
    </defs>
    <g id="Page-1" stroke="none" stroke-width="1" fill="none" fill-rule="evenodd">
        <g id="og-white">
            <path d="M261.781019,140 L261.781019,108.137 L279.196019,108.137 L295.579019,140 L317.509019,140 L300.610019,105.17 C305.684019,103.106 309.683019,99.537 312.607019,94.463 C315.531019,89.389 316.993019,84.186 316.993019,78.854 C316.993019,70.254 314.563519,63.245 309.704519,57.827 C304.845519,52.409 296.998019,49.7 286.162019,49.7 L286.162019,49.7 L242.173019,49.7 L242.173019,140 L261.781019,140 Z M286.420019,89.561 L261.781019,89.561 L261.781019,68.276 L286.420019,68.276 C290.032019,68.276 292.633519,69.2865 294.224519,71.3075 C295.815519,73.3285 296.611019,75.844 296.611019,78.854 C296.611019,85.992 293.214019,89.561 286.420019,89.561 L286.420019,89.561 Z M346.86017,141.548 C357.35217,141.548 365.90917,137.549 372.53117,129.551 L372.53117,129.551 L361.69517,118.715 C357.82517,123.359 352.88017,125.681 346.86017,125.681 C343.16217,125.681 340.10917,124.6705 337.70117,122.6495 C335.29317,120.6285 334.00317,117.554 333.83117,113.426 L333.83117,113.426 L376.01417,113.426 C376.35817,111.19 376.53017,107.965 376.53017,103.751 C376.53017,93.603 373.77817,85.863 368.27417,80.531 C362.77017,75.199 355.63217,72.533 346.86017,72.533 C337.22817,72.533 329.59567,75.629 323.96267,81.821 C318.32967,88.013 315.51317,96.398 315.51317,106.976 C315.51317,117.812 318.30817,126.283 323.89817,132.389 C329.48817,138.495 337.14217,141.548 346.86017,141.548 Z M358.59917,99.365 L333.96017,99.365 C334.39017,95.925 335.68017,93.2375 337.83017,91.3025 C339.98017,89.3675 342.73217,88.4 346.08617,88.4 C353.48217,88.4 357.65317,92.055 358.59917,99.365 L358.59917,99.365 Z M403.172321,141.548 C410.138321,141.548 415.599321,139.398 419.555321,135.098 L419.555321,135.098 L419.555321,140 L438.131321,140 L438.131321,98.333 C438.131321,81.133 428.800321,72.533 410.138321,72.533 C399.388321,72.533 389.971321,75.285 381.887321,80.789 L381.887321,80.789 L387.692321,95.108 C394.658321,90.464 401.710321,88.142 408.848321,88.142 C412.202321,88.142 414.825321,88.9375 416.717321,90.5285 C418.609321,92.1195 419.555321,94.42 419.555321,97.43 L419.555321,97.43 L419.555321,101.042 C416.115321,99.494 411.299321,98.72 405.107321,98.72 C397.969321,98.72 391.734321,100.5475 386.402321,104.2025 C381.070321,107.8575 378.404321,113.082 378.404321,119.876 C378.404321,126.842 380.704821,132.1955 385.305821,135.9365 C389.906821,139.6775 395.862321,141.548 403.172321,141.548 Z M406.784321,125.81 C400.076321,125.81 396.722321,123.875 396.722321,120.005 C396.722321,115.791 400.592321,113.684 408.332321,113.684 C412.374321,113.684 416.115321,114.2 419.555321,115.232 L419.555321,115.232 L419.555321,121.166 C415.685321,124.262 411.428321,125.81 406.784321,125.81 Z M474.061472,141.548 C489.025472,141.548 498.700472,134.109 503.086472,119.231 L503.086472,119.231 L485.155472,114.071 C483.177472,120.435 479.479472,123.617 474.061472,123.617 C470.621472,123.617 467.783472,122.0905 465.547472,119.0375 C463.311472,115.9845 462.193472,112.007 462.193472,107.105 C462.193472,102.203 463.332972,98.204 465.611972,95.108 C467.890972,92.012 470.793472,90.464 474.319472,90.464 C479.393472,90.464 483.005472,93.302 485.155472,98.978 L485.155472,98.978 L502.957472,93.173 C498.657472,79.413 489.025472,72.533 474.061472,72.533 C464.773472,72.533 457.312972,75.6505 451.679972,81.8855 C446.046972,88.1205 443.230472,96.527 443.230472,107.105 C443.230472,117.855 446.025472,126.283 451.615472,132.389 C457.205472,138.495 464.687472,141.548 474.061472,141.548 Z M528.954623,141.548 C534.888623,141.548 539.876623,140.559 543.918623,138.581 L543.918623,138.581 L545.982623,122.843 C542.198623,124.563 538.414623,125.423 534.630623,125.423 C533.598623,125.423 532.717123,125.1005 531.986123,124.4555 C531.255123,123.8105 530.889623,122.886 530.889623,121.682 L530.889623,121.682 L530.889623,90.464 L545.208623,90.464 L545.208623,74.081 L530.889623,74.081 L530.889623,46.862 L512.313623,55.763 L512.313623,74.081 L503.283623,74.081 L503.283623,90.464 L512.313623,90.464 L512.313623,123.488 C512.313623,135.528 517.860623,141.548 528.954623,141.548 Z M614.230925,140 L646.609925,49.7 L625.582925,49.7 L606.103925,106.589 C605.501925,108.395 605.114925,109.685 604.942925,110.459 L604.942925,110.459 L604.555925,109.04 C604.297925,108.008 604.039925,107.191 603.781925,106.589 L603.781925,106.589 L584.302925,49.7 L563.017925,49.7 L595.525925,140 L614.230925,140 Z M659.320075,67.76 C662.330075,67.76 664.867075,66.7065 666.931075,64.5995 C668.995075,62.4925 670.027075,59.977 670.027075,57.053 C670.027075,54.043 668.995075,51.5275 666.931075,49.5065 C664.867075,47.4855 662.330075,46.475 659.320075,46.475 C656.310075,46.475 653.751575,47.507 651.644575,49.571 C649.537575,51.635 648.484075,54.129 648.484075,57.053 C648.484075,59.977 649.559075,62.4925 651.709075,64.5995 C653.859075,66.7065 656.396075,67.76 659.320075,67.76 Z M668.608075,140 L668.608075,74.081 L649.903075,74.081 L649.903075,140 L668.608075,140 Z M697.056226,140 L697.056226,104.267 C697.056226,95.151 700.840226,90.593 708.408226,90.593 C712.622226,90.593 716.535226,92.098 720.147226,95.108 L720.147226,95.108 L722.598226,78.08 C719.072226,74.382 714.729226,72.533 709.569226,72.533 C706.559226,72.533 703.936226,73.35 701.700226,74.984 C699.464226,76.618 697.916226,78.295 697.056226,80.015 L697.056226,80.015 L697.056226,74.081 L678.351226,74.081 L678.351226,140 L697.056226,140 Z M744.080377,141.548 C750.014377,141.548 755.002377,140.559 759.044377,138.581 L759.044377,138.581 L761.108377,122.843 C757.324377,124.563 753.540377,125.423 749.756377,125.423 C748.724377,125.423 747.842877,125.1005 747.111877,124.4555 C746.380877,123.8105 746.015377,122.886 746.015377,121.682 L746.015377,121.682 L746.015377,90.464 L760.334377,90.464 L760.334377,74.081 L746.015377,74.081 L746.015377,46.862 L727.439377,55.763 L727.439377,74.081 L718.409377,74.081 L718.409377,90.464 L727.439377,90.464 L727.439377,123.488 C727.439377,135.528 732.986377,141.548 744.080377,141.548 Z M792.007528,141.548 C799.919528,141.548 805.939528,139.011 810.067528,133.937 L810.067528,133.937 L810.067528,140 L828.772528,140 L828.772528,74.081 L810.067528,74.081 L810.067528,108.653 C810.067528,113.727 809.143028,117.468 807.294028,119.876 C805.445028,122.284 802.542528,123.488 798.586528,123.488 C794.630528,123.488 791.878528,122.284 790.330528,119.876 C788.782528,117.468 788.008528,113.641 788.008528,108.395 L788.008528,108.395 L788.008528,74.081 L769.303528,74.081 L769.303528,116.909 C769.303528,121.381 770.013028,125.294 771.432028,128.648 C772.851028,132.002 774.721528,134.582 777.043528,136.388 C779.365528,138.194 781.773528,139.5055 784.267528,140.3225 C786.761528,141.1395 789.341528,141.548 792.007528,141.548 Z M859.284679,141.548 C866.250679,141.548 871.711679,139.398 875.667679,135.098 L875.667679,135.098 L875.667679,140 L894.243679,140 L894.243679,98.333 C894.243679,81.133 884.912679,72.533 866.250679,72.533 C855.500679,72.533 846.083679,75.285 837.999679,80.789 L837.999679,80.789 L843.804679,95.108 C850.770679,90.464 857.822679,88.142 864.960679,88.142 C868.314679,88.142 870.937679,88.9375 872.829679,90.5285 C874.721679,92.1195 875.667679,94.42 875.667679,97.43 L875.667679,97.43 L875.667679,101.042 C872.227679,99.494 867.411679,98.72 861.219679,98.72 C854.081679,98.72 847.846679,100.5475 842.514679,104.2025 C837.182679,107.8575 834.516679,113.082 834.516679,119.876 C834.516679,126.842 836.817179,132.1955 841.418179,135.9365 C846.019179,139.6775 851.974679,141.548 859.284679,141.548 Z M862.896679,125.81 C856.188679,125.81 852.834679,123.875 852.834679,120.005 C852.834679,115.791 856.704679,113.684 864.444679,113.684 C868.486679,113.684 872.227679,114.2 875.667679,115.232 L875.667679,115.232 L875.667679,121.166 C871.797679,124.262 867.540679,125.81 862.896679,125.81 Z M921.91783,140 L921.91783,46.862 L903.21283,55.634 L903.21283,140 L921.91783,140 Z" id="ReactVirtual" fill="#002C4B" fill-rule="nonzero"></path>
            <path d="M61.7239712,61.3436237 C58.631224,46.362877 57.9675112,34.8727722 59.9666331,26.5293551 C61.1555965,21.5671678 63.3293088,17.5190846 66.6346064,14.5984631 C70.1241394,11.5150478 74.5360327,10.0020122 79.493257,10.0020122 C87.6712013,10.0020122 96.2682602,13.7273214 105.455725,20.8044264 C109.20312,23.6910458 113.092437,27.170411 117.131651,31.2444746 C117.45314,30.8310265 117.816542,30.4410453 118.22143,30.0806152 C129.64098,19.9149716 139.255245,13.5989272 147.478408,11.1636507 C152.367899,9.715636 156.958526,9.57768202 161.138936,10.983031 C165.551631,12.4664684 169.06766,15.5329489 171.548314,19.8281091 C175.642288,26.9166735 176.721918,36.2310983 175.195595,47.7320243 C174.573451,52.4199112 173.50985,57.5263831 172.007094,63.0593153 C172.574045,63.1277086 173.142416,63.2532808 173.705041,63.4395297 C188.193932,68.2358678 198.453582,73.3937462 204.665021,79.2882839 C208.360669,82.7953831 210.773972,86.6998434 211.646365,91.0218204 C212.567176,95.5836746 211.669313,100.159332 209.191548,104.451297 C205.105211,111.529614 197.591643,117.11221 186.887587,121.534031 C182.589552,123.309539 177.726579,124.917559 172.293259,126.363748 C172.541176,126.92292 172.733521,127.516759 172.862138,128.139758 C175.954886,143.120505 176.618598,154.61061 174.619477,162.954027 C173.430513,167.916214 171.256801,171.964297 167.951503,174.884919 C164.46197,177.968334 160.050077,179.48137 155.092853,179.48137 C146.914908,179.48137 138.31785,175.756061 129.130385,168.678956 C125.343104,165.761613 121.410866,162.238839 117.325434,158.108619 C116.905075,158.765474 116.388968,159.376011 115.77857,159.919385 C104.35902,170.085028 94.744755,176.401073 86.5215915,178.836349 C81.6321009,180.284364 77.0414736,180.422318 72.8610636,179.016969 C68.4483686,177.533532 64.9323404,174.467051 62.4516862,170.171891 C58.3577116,163.083327 57.2780823,153.768902 58.8044053,142.267976 C59.449038,137.410634 60.56762,132.103898 62.1575891,126.339009 C61.5361041,126.276104 60.9120754,126.144816 60.2949591,125.940529 C45.8060684,121.144191 35.5464184,115.986312 29.3349789,110.091775 C25.6393312,106.584675 23.2260275,102.680215 22.3536352,98.3582381 C21.4328237,93.7963839 22.3306866,89.2207269 24.8084524,84.9287618 C28.8947886,77.8504443 36.4083565,72.2678481 47.1124133,67.8460273 C51.5385143,66.0176154 56.5637208,64.366822 62.1939394,62.8874674 C61.9933393,62.3969171 61.8349374,61.8811235 61.7239712,61.3436237 Z" id="Path" fill="#002C4B" fill-rule="nonzero" transform="translate(117.000000, 95.000000) scale(-1, 1) translate(-117.000000, -95.000000) "></path>
            <g id="Rectangle-+-Rectangle-Copy-10-+-Rectangle-Copy-5-+-Rectangle-Copy-+-Rectangle-Copy-11-+-Rectangle-Copy-6-+-Rectangle-Copy-3-+-Rectangle-Copy-14-+-Rectangle-Copy-9-+-Rectangle-Copy-15-+-Rectangle-Copy-25-+-Rectangle-Copy-20-+-Rectangle-Copy-36-+-Rectangle-Copy-16-+-Rectangle-Copy-29-+-Rectangle-Copy-37-+-Rectangle-Copy-21-+-Rectangle-Copy-30-+-Rectangle-Copy-38-+-Rectangle-Copy-2-+-Rectangle-Copy-12-+-Rectangle-Copy-17-+-Rectangle-Copy-22-+-Rectangle-Copy-7-+-Rectangle-Copy-19-+-Rectangle-Copy-27-+-Rectangle-Copy-35-+-Rectangle-Copy-34-+-Rectangle-Copy-33-+-Rectangle-Copy-32-+-Rectangle-Copy-31-Mask" transform="translate(73.000000, 50.000000)">
                <mask id="mask-2" fill="white">
                    <use xlink:href="#path-1"></use>
                </mask>
                <g id="Mask" opacity="0.152994792" transform="translate(43.899178, 46.032833) rotate(-30.000000) translate(-43.899178, -46.032833) "></g>
                <g id="Group" mask="url(#mask-2)" fill="#FFD94C">
                    <g transform="translate(23.659218, 26.137507)">
                        <rect id="Rectangle" x="14.7625698" y="29.3247588" width="10.5586592" height="10.2250804"></rect>
                        <rect id="Rectangle-Copy-10" x="0" y="29.3247588" width="10.5586592" height="10.2250804"></rect>
                        <rect id="Rectangle-Copy-5" x="29.4273743" y="29.3247588" width="10.5586592" height="10.2250804"></rect>
                        <rect id="Rectangle-Copy-11" x="29.4273743" y="0" width="10.5586592" height="10.4180064"></rect>
                        <rect id="Rectangle-Copy-16" x="14.7625698" y="0" width="10.5586592" height="10.4180064"></rect>
                        <rect id="Rectangle-Copy-37" x="0" y="0" width="10.5586592" height="10.2250804"></rect>
                        <rect id="Rectangle-Copy-21" x="0" y="14.6623794" width="10.5586592" height="10.4180064"></rect>
                        <rect id="Rectangle-Copy-30" x="14.7625698" y="14.6623794" width="10.5586592" height="10.4180064"></rect>
                        <rect id="Rectangle-Copy-38" x="29.4273743" y="14.6623794" width="10.5586592" height="10.4180064"></rect>
                    </g>
                </g>
                <g id="Group-2" opacity="0.613211496" mask="url(#mask-2)" fill="#FFD94C">
                    <g transform="translate(8.896648, 11.571591)">
                        <rect id="Rectangle-Copy" x="58.952514" y="14.5659164" width="10.5586592" height="10.4180064"></rect>
                        <rect id="Rectangle-Copy-6" x="0" y="29.2282958" width="10.5586592" height="10.4180064"></rect>
                        <rect id="Rectangle-Copy-3" x="44.5810056" y="58.0707395" width="10.5586592" height="10.2250804"></rect>
                        <rect id="Rectangle-Copy-14" x="29.7206704" y="58.0707395" width="10.5586592" height="10.2250804"></rect>
                        <rect id="Rectangle-Copy-9" x="59.4413408" y="58.0707395" width="10.5586592" height="10.2250804"></rect>
                        <rect id="Rectangle-Copy-15" x="0" y="43.8906752" width="10.5586592" height="10.2250804"></rect>
                        <rect id="Rectangle-Copy-25" x="58.952514" y="29.2282958" width="10.5586592" height="10.2250804"></rect>
                        <rect id="Rectangle-Copy-20" x="58.952514" y="43.8906752" width="10.5586592" height="10.2250804"></rect>
                        <rect id="Rectangle-Copy-36" x="0" y="58.4565916" width="10.5586592" height="10.2250804"></rect>
                        <rect id="Rectangle-Copy-29" x="0" y="14.5659164" width="10.5586592" height="10.2250804"></rect>
                        <rect id="Rectangle-Copy-2" x="29.5251397" y="0" width="10.5586592" height="10.2250804"></rect>
                        <rect id="Rectangle-Copy-12" x="14.7625698" y="0" width="10.5586592" height="10.2250804"></rect>
                        <rect id="Rectangle-Copy-17" x="0" y="0" width="10.5586592" height="10.2250804"></rect>
                        <rect id="Rectangle-Copy-22" x="58.952514" y="0" width="10.5586592" height="10.2250804"></rect>
                        <rect id="Rectangle-Copy-7" x="44.1899441" y="0" width="10.5586592" height="10.2250804"></rect>
                        <rect id="Rectangle-Copy-19" x="14.8603352" y="58.0707395" width="10.5586592" height="10.2250804"></rect>
                        <rect id="Rectangle-Copy-27" x="0" y="58.0707395" width="10.5586592" height="10.2250804"></rect>
                        <rect id="Rectangle-Copy-35" x="59.4413408" y="43.6012862" width="10.5586592" height="10.2250804"></rect>
                        <rect id="Rectangle-Copy-34" x="58.952514" y="58.4565916" width="10.5586592" height="10.2250804"></rect>
                        <rect id="Rectangle-Copy-33" x="44.1899441" y="58.4565916" width="10.5586592" height="10.2250804"></rect>
                        <rect id="Rectangle-Copy-32" x="29.5251397" y="58.4565916" width="10.5586592" height="10.2250804"></rect>
                        <rect id="Rectangle-Copy-31" x="14.7625698" y="58.4565916" width="10.5586592" height="10.2250804"></rect>
                    </g>
                </g>
            </g>
            <path d="M76.8601729,108.357758 C78.1715224,107.608286 79.8360246,108.074601 80.5779424,109.399303 L80.5779424,109.399303 L81.0525843,110.24352 C84.8563392,116.982993 88.8190116,123.380176 92.9406016,129.435068 C97.8078808,136.585427 103.28184,143.82411 109.362479,151.151115 C110.316878,152.30114 110.184944,154.011176 109.065686,154.997937 L109.065686,154.997937 L108.454208,155.534625 C88.3465389,173.103314 75.2778188,176.612552 69.2480482,166.062341 C63.3500652,155.742717 65.4844915,136.982888 75.6513274,109.782853 C75.876818,109.179582 76.3045861,108.675291 76.8601729,108.357758 Z M162.534177,129.041504 C163.986131,128.785177 165.375496,129.742138 165.65963,131.194242 L165.65963,131.194242 L165.812815,131.986376 C170.782365,157.995459 167.283348,171 155.315764,171 C143.609745,171 128.708724,159.909007 110.612702,137.727022 C110.211349,137.235047 109.994572,136.617371 110,135.981509 C110.013158,134.480686 111.235785,133.274651 112.730918,133.287756 L112.730918,133.287756 L113.684654,133.294531 C121.305698,133.335994 128.714387,133.071591 135.910723,132.501323 C144.409039,131.82788 153.283523,130.674607 162.534177,129.041504 Z M169.408726,73.8119663 C169.932139,72.4026903 171.508386,71.6634537 172.954581,72.149012 L172.954581,72.149012 L173.742552,72.4154854 C199.583763,81.217922 209.402356,90.8916805 203.198332,101.436761 C197.129904,111.751366 179.484347,119.260339 150.26166,123.963678 C149.613529,124.067994 148.948643,123.945969 148.382735,123.618843 C147.047025,122.846729 146.602046,121.158214 147.388848,119.847438 L147.388848,119.847438 L147.889328,119.0105 C151.877183,112.31633 155.481358,105.654262 158.701854,99.0242957 C162.50501,91.1948179 166.073967,82.7907081 169.408726,73.8119663 Z M83.7383398,66.0363218 C84.3864708,65.9320063 85.0513565,66.0540315 85.6172646,66.3811573 C86.9529754,67.153271 87.3979538,68.8417862 86.6111517,70.1525615 L86.6111517,70.1525615 L86.1106718,70.9895001 C82.1228168,77.6836699 78.5186416,84.3457379 75.2981462,90.9757043 C71.49499,98.8051821 67.9260328,107.209292 64.5912744,116.188034 C64.0678608,117.59731 62.4916142,118.336546 61.045419,117.850988 L61.045419,117.850988 L60.2574475,117.584515 C34.4162372,108.782078 24.597644,99.1083195 30.8016679,88.5632391 C36.8700957,78.2486335 54.515653,70.7396611 83.7383398,66.0363218 Z M125.545792,34.4653746 C145.653461,16.8966864 158.722181,13.3874478 164.751952,23.9376587 C170.649935,34.2572826 168.515508,53.0171122 158.348673,80.2171474 C158.123182,80.8204179 157.695414,81.324709 157.139827,81.6422422 C155.828478,82.3917144 154.163975,81.9253986 153.422058,80.6006966 L153.422058,80.6006966 L152.947416,79.7564798 C149.143661,73.0170065 145.180988,66.6198239 141.059398,60.564932 C136.192119,53.4145727 130.71816,46.1758903 124.637521,38.8488847 C123.683122,37.6988602 123.815056,35.9888243 124.934314,35.0020629 L124.934314,35.0020629 Z M79.6842361,18 C91.3902551,18 106.291276,29.0909926 124.387298,51.2729777 C124.788651,51.7649527 125.005428,52.3826288 125,53.0184911 C124.986842,54.5193144 123.764215,55.7253489 122.269082,55.7122445 L122.269082,55.7122445 L121.315346,55.7054689 C113.694302,55.6640063 106.285613,55.9284091 99.0892772,56.4986773 C90.5909612,57.17212 81.7164767,58.325393 72.4658235,59.9584962 C71.0138691,60.2148231 69.6245044,59.2578618 69.3403697,57.805758 L69.3403697,57.805758 L69.1871846,57.0136235 C64.2176347,31.0045412 67.7166519,18 79.6842361,18 Z" id="Combined-Shape" fill="#FF4154"></path>
        </g>
    </g>
</svg>